<svg width="191" height="38" xmlns="http://www.w3.org/2000/svg">
  <g fill="none" fill-rule="evenodd">
    <rect fill="#00AEEF" width="191" height="38" rx="19"/>
    <g fill-rule="nonzero">
      <path d="M32.858 29.174v2.879a3.663 3.663 0 001.267-.449l8.237-4.71a3.693 3.693 0 001.863-3.215v-9.384c0-.41-.075-.822-.224-1.233l-2.497 1.458-6.894 3.962c-1.417 1.01-1.715 1.944-1.752 3.066v7.626z" fill="#FBBF09"/>
      <path d="M40.945 13.51l2.497-1.458a3.334 3.334 0 00-1.08-.972l-8.237-4.71c-1.155-.673-2.572-.636-3.69 0l-8.199 4.71c-.447.262-.82.598-1.118 1.01l2.497 1.458 6.895 3.962c.82.524 1.379 1.047 1.752 1.645.372-.598.931-1.121 1.751-1.645l6.932-4z" fill="#00A275"/>
      <path d="M23.093 14.557l-2.534-1.458c-.149.374-.224.785-.224 1.196v9.421c0 1.309.709 2.542 1.864 3.215l8.2 4.71c.372.225.819.374 1.266.45V21.547c-.037-1.122-.335-2.056-1.751-3.066l-6.82-3.925z" fill="#EB8A04"/>
      <path d="M44.001 13.062l-2.497 1.458c.075.261.15.56.15.86v7.252c0 1.047-.56 2.056-1.491 2.58l-6.336 3.626c-.298.15-.596.261-.932.336v2.879a3.663 3.663 0 001.267-.449l8.2-4.71a3.693 3.693 0 001.863-3.215v-9.384c0-.41-.075-.822-.224-1.233z" fill="#F5EA64"/>
      <path d="M24.472 12.8l6.299-3.626c.932-.524 2.087-.524 2.981 0l6.336 3.626c.336.187.596.449.82.71l2.497-1.458a3.334 3.334 0 00-1.08-.972l-8.2-4.71c-1.155-.673-2.572-.636-3.69 0l-8.199 4.71c-.447.262-.82.598-1.118 1.01l2.497 1.458c.261-.3.522-.561.857-.748z" fill="#48C0ED"/>
      <path d="M30.77 28.838l-6.298-3.626c-.931-.524-1.49-1.533-1.49-2.58v-7.253c0-.299.037-.56.111-.822l-2.534-1.458c-.149.374-.224.785-.224 1.196v9.421c0 1.309.709 2.542 1.864 3.215l8.2 4.71c.372.225.819.374 1.266.45v-2.88c-.298-.112-.596-.224-.894-.373z" fill="#FDD657"/>
      <path d="M56.696 24c.681 0 1.29-.098 1.827-.294a3.624 3.624 0 001.372-.875 3.84 3.84 0 00.868-1.449c.2-.579.301-1.246.301-2.002 0-1.512-.392-2.646-1.176-3.402-.784-.756-1.876-1.134-3.276-1.134h-2.45V24h2.534zm-.196-1.316h-.714V16.16h.714c.924 0 1.638.257 2.142.77s.756 1.33.756 2.45c0 1.13-.25 1.962-.749 2.499-.5.537-1.216.805-2.149.805zm9.312 1.484c.439 0 .859-.07 1.26-.21.401-.14.765-.317 1.092-.532l-.546-1.008a3.702 3.702 0 01-.763.371 2.535 2.535 0 01-.833.133c-.56 0-1.02-.166-1.379-.497-.36-.331-.576-.805-.651-1.421h4.368c.019-.084.035-.196.049-.336.014-.14.021-.29.021-.448 0-.476-.06-.915-.182-1.316a2.956 2.956 0 00-.539-1.036 2.404 2.404 0 00-.889-.672c-.355-.159-.765-.238-1.232-.238-.401 0-.793.084-1.176.252a3.132 3.132 0 00-1.015.714c-.294.308-.53.686-.707 1.134a4.079 4.079 0 00-.266 1.512c0 .57.086 1.076.259 1.519.173.443.413.819.721 1.127.308.308.667.544 1.078.707.41.163.854.245 1.33.245zm1.218-4.256h-3.052c.075-.56.266-.985.574-1.274.308-.29.667-.434 1.078-.434.476 0 .828.152 1.057.455.229.303.343.721.343 1.253zm4.65 6.804V24.56l-.042-1.148c.28.243.57.43.868.56.299.13.597.196.896.196.383 0 .751-.084 1.106-.252.355-.168.667-.408.938-.721.27-.313.488-.7.651-1.162.163-.462.245-.987.245-1.575a5.3 5.3 0 00-.182-1.442 3.295 3.295 0 00-.532-1.106 2.366 2.366 0 00-.847-.707 2.548 2.548 0 00-1.141-.245c-.383 0-.751.089-1.106.266a4.92 4.92 0 00-.966.63h-.056l-.112-.728h-1.33v9.59h1.61zm1.386-3.878c-.205 0-.425-.042-.658-.126a2.406 2.406 0 01-.728-.448v-3.206c.523-.513 1.027-.77 1.512-.77.523 0 .9.191 1.134.574.233.383.35.92.35 1.61 0 .784-.154 1.374-.462 1.771-.308.397-.69.595-1.148.595zm6.568 1.33c.355 0 .64-.047.854-.14l-.21-1.204a.594.594 0 01-.147.028h-.105c-.084 0-.163-.04-.238-.119-.075-.08-.112-.217-.112-.413v-8.204h-1.61v8.12c0 .597.117 1.069.35 1.414.233.345.64.518 1.218.518zm5.14 0c.43 0 .842-.08 1.239-.238a2.978 2.978 0 001.043-.7c.299-.308.539-.686.721-1.134.182-.448.273-.957.273-1.526 0-.57-.091-1.078-.273-1.526a3.497 3.497 0 00-.721-1.134 3.062 3.062 0 00-1.043-.707 3.223 3.223 0 00-2.471 0c-.392.163-.74.399-1.043.707a3.349 3.349 0 00-.721 1.134c-.177.448-.266.957-.266 1.526 0 .57.089 1.078.266 1.526.177.448.418.826.721 1.134.303.308.651.541 1.043.7.392.159.803.238 1.232.238zm0-1.316c-.504 0-.898-.208-1.183-.623-.285-.415-.427-.968-.427-1.659 0-.7.142-1.258.427-1.673a1.357 1.357 0 011.183-.623c.504 0 .9.208 1.19.623.29.415.434.973.434 1.673 0 .69-.145 1.244-.434 1.659-.29.415-.686.623-1.19.623zm5.35 3.976c.373 0 .702-.058.987-.175.285-.117.537-.285.756-.504.22-.22.413-.483.581-.791.168-.308.322-.658.462-1.05l2.492-7.182h-1.554L92.812 20.5a208.316 208.316 0 00-.518 1.932h-.056a60.932 60.932 0 01-.301-.987 22.823 22.823 0 00-.301-.945l-1.19-3.374h-1.638l2.702 6.79-.126.434a2.082 2.082 0 01-.497.847c-.22.22-.511.329-.875.329-.084 0-.17-.012-.259-.035a11.608 11.608 0 01-.231-.063l-.294 1.26c.13.047.266.082.406.105.14.023.303.035.49.035zM102.574 24l.784-3.192c.075-.327.145-.653.21-.98.065-.327.13-.672.196-1.036h.056l.21 1.029c.065.322.135.646.21.973l.798 3.206h1.918l1.75-6.874h-1.512l-.826 3.57c-.065.327-.126.653-.182.98-.056.327-.117.658-.182.994h-.056l-.224-.994a37.38 37.38 0 00-.238-.98l-.91-3.57h-1.47l-.896 3.57c-.084.327-.161.653-.231.98-.07.327-.138.658-.203.994h-.056a27.902 27.902 0 01-.175-.994 14.497 14.497 0 00-.189-.98l-.826-3.57h-1.624l1.82 6.874h1.848zm8.402-8.078c.29 0 .527-.084.714-.252a.844.844 0 00.28-.658.865.865 0 00-.28-.665c-.187-.173-.425-.259-.714-.259-.29 0-.527.086-.714.259a.865.865 0 00-.28.665c0 .27.093.49.28.658.187.168.425.252.714.252zm.798 8.078v-6.874h-1.61V24h1.61zm4.58.168c.27 0 .525-.026.763-.077.238-.051.45-.11.637-.175l-.28-1.19a1.74 1.74 0 01-.343.112c-.126.028-.25.042-.371.042-.644 0-.966-.401-.966-1.204V18.4h1.75v-1.274h-1.75V15.25h-1.344l-.196 1.876-1.064.07V18.4h.98v3.276c0 .373.04.712.119 1.015.08.303.205.565.378.784.173.22.397.39.672.511s.614.182 1.015.182zm4.342-.168v-4.802c.29-.28.548-.492.777-.637.229-.145.492-.217.791-.217.383 0 .658.117.826.35.168.233.252.635.252 1.204V24h1.61v-4.312c0-.877-.168-1.552-.504-2.023-.336-.471-.873-.707-1.61-.707-.476 0-.889.105-1.239.315-.35.21-.67.45-.959.721l.056-1.33v-2.548h-1.61V24h1.61zm12.534.168c.383 0 .751-.084 1.106-.252.355-.168.667-.41.938-.728a3.66 3.66 0 00.651-1.169c.163-.462.245-.987.245-1.575a5.3 5.3 0 00-.182-1.442 3.216 3.216 0 00-.532-1.099 2.377 2.377 0 00-.854-.7 2.593 2.593 0 00-1.148-.245c-.355 0-.702.08-1.043.238-.34.159-.656.364-.945.616l.042-1.148v-2.548h-1.61V24h1.274l.14-.728h.042c.29.29.595.511.917.665.322.154.642.231.959.231zm-.336-1.33c-.205 0-.427-.042-.665-.126a2.225 2.225 0 01-.721-.448v-3.206c.523-.513 1.027-.77 1.512-.77.523 0 .9.191 1.134.574.233.383.35.92.35 1.61 0 .784-.154 1.374-.462 1.771-.308.397-.69.595-1.148.595zm6.484 1.33c.41 0 .791-.089 1.141-.266a5.05 5.05 0 00.987-.658h.056l.112.756h1.33v-4.074c0-.961-.212-1.696-.637-2.205-.425-.509-1.066-.763-1.925-.763-.55 0-1.064.089-1.54.266a6.887 6.887 0 00-1.288.63l.588 1.078c.308-.187.623-.345.945-.476.322-.13.651-.196.987-.196.233 0 .43.035.588.105.159.07.287.168.385.294.098.126.168.27.21.434.042.163.068.334.077.511-.71.075-1.318.182-1.827.322-.509.14-.929.313-1.26.518-.331.205-.574.45-.728.735a2.012 2.012 0 00-.231.973c0 .607.187 1.094.56 1.463.373.369.863.553 1.47.553zm.518-1.26c-.29 0-.527-.07-.714-.21-.187-.14-.28-.364-.28-.672 0-.168.042-.327.126-.476.084-.15.224-.282.42-.399a3.4 3.4 0 01.77-.315c.317-.093.71-.168 1.176-.224v1.54c-.261.243-.506.43-.735.56a1.51 1.51 0 01-.763.196zm6.708 1.26c.355 0 .64-.047.854-.14l-.21-1.204a.594.594 0 01-.147.028h-.105c-.084 0-.163-.04-.238-.119-.075-.08-.112-.217-.112-.413v-8.204h-1.61v8.12c0 .597.117 1.069.35 1.414.233.345.64.518 1.218.518zm5.266 0c.439 0 .859-.07 1.26-.21.401-.14.765-.317 1.092-.532l-.546-1.008a3.702 3.702 0 01-.763.371 2.535 2.535 0 01-.833.133c-.56 0-1.02-.166-1.379-.497-.36-.331-.576-.805-.651-1.421h4.368c.019-.084.035-.196.049-.336.014-.14.021-.29.021-.448 0-.476-.06-.915-.182-1.316a2.956 2.956 0 00-.539-1.036 2.404 2.404 0 00-.889-.672c-.355-.159-.765-.238-1.232-.238-.401 0-.793.084-1.176.252a3.132 3.132 0 00-1.015.714c-.294.308-.53.686-.707 1.134a4.079 4.079 0 00-.266 1.512c0 .57.086 1.076.259 1.519.173.443.413.819.721 1.127.308.308.667.544 1.078.707.41.163.854.245 1.33.245zm1.218-4.256h-3.052c.075-.56.266-.985.574-1.274.308-.29.667-.434 1.078-.434.476 0 .828.152 1.057.455.229.303.343.721.343 1.253zm4.65 4.088v-4.802c.29-.28.548-.492.777-.637.229-.145.492-.217.791-.217.383 0 .658.117.826.35.168.233.252.635.252 1.204V24h1.61v-4.312c0-.877-.168-1.552-.504-2.023-.336-.471-.873-.707-1.61-.707-.476 0-.894.107-1.253.322a5.45 5.45 0 00-1.001.77h-.056l-.112-.924h-1.33V24h1.61zm7.996.168c.41 0 .791-.089 1.141-.266a5.05 5.05 0 00.987-.658h.056l.112.756h1.33v-4.074c0-.961-.212-1.696-.637-2.205-.425-.509-1.066-.763-1.925-.763-.55 0-1.064.089-1.54.266a6.887 6.887 0 00-1.288.63l.588 1.078c.308-.187.623-.345.945-.476.322-.13.651-.196.987-.196.233 0 .43.035.588.105.159.07.287.168.385.294.098.126.168.27.21.434.042.163.068.334.077.511-.71.075-1.318.182-1.827.322-.509.14-.929.313-1.26.518-.331.205-.574.45-.728.735a2.012 2.012 0 00-.231.973c0 .607.187 1.094.56 1.463.373.369.863.553 1.47.553zm.518-1.26c-.29 0-.527-.07-.714-.21-.187-.14-.28-.364-.28-.672 0-.168.042-.327.126-.476.084-.15.224-.282.42-.399a3.4 3.4 0 01.77-.315c.317-.093.71-.168 1.176-.224v1.54c-.261.243-.506.43-.735.56a1.51 1.51 0 01-.763.196z" fill="#FFF"/>
    </g>
  </g>
</svg>
